<?xml version="1.0" encoding="utf-8"?>
<!-- Generator: Adobe Illustrator 16.0.0, SVG Export Plug-In . SVG Version: 6.00 Build 0)  -->
<!DOCTYPE svg PUBLIC "-//W3C//DTD SVG 1.1//EN" "http://www.w3.org/Graphics/SVG/1.1/DTD/svg11.dtd">
<svg version="1.1" id="Layer_1" xmlns="http://www.w3.org/2000/svg" xmlns:xlink="http://www.w3.org/1999/xlink" x="0px" y="0px"
	 width="175px" height="38px" viewBox="0 0 175 38" enable-background="new 0 0 175 38" xml:space="preserve">
<g>
	<text transform="matrix(1 0 0 1 46.5068 33.3154)"><tspan x="0" y="0" fill="#FFFFFF" font-family="'ArialMT'" font-size="7.0328" letter-spacing="9">B</tspan><tspan x="13.833" y="0" fill="#FFFFFF" font-family="'ArialMT'" font-size="7.0328" letter-spacing="9">L</tspan><tspan x="26.88" y="0" fill="#FFFFFF" font-family="'ArialMT'" font-size="7.0328" letter-spacing="9">I</tspan><tspan x="37.977" y="0" fill="#FFFFFF" font-family="'ArialMT'" font-size="7.0328" letter-spacing="9">ND</tspan><tspan x="66.405" y="0" fill="#FFFFFF" font-family="'ArialMT'" font-size="7.0328" letter-spacing="9">AGE</tspan><tspan x="108.685" y="0" fill="#FFFFFF" font-family="'ArialMT'" font-size="7.0328" letter-spacing="9">N</tspan><tspan x="122.899" y="0" fill="#FFFFFF" font-family="'ArialMT'" font-size="7.0328">S</tspan></text>
	<rect x="46.166" y="23.103" fill="#ED6522" width="127.858" height="0.887"/>
	<path fill="#FFFFFF" d="M59.224,4.258h2.866l6.101,10.43l6.082-10.43h2.699L69.225,17.22c-0.135,0.237-0.295,0.423-0.48,0.56
		s-0.401,0.205-0.647,0.205c-0.258,0-0.48-0.068-0.665-0.205c-0.185-0.137-0.345-0.322-0.481-0.56L59.224,4.258z"/>
	<path fill="#FFFFFF" d="M82.757,17.798c-0.937,0-1.801-0.177-2.597-0.531c-0.795-0.354-1.485-0.838-2.071-1.452
		c-0.585-0.614-1.041-1.344-1.367-2.188c-0.327-0.845-0.49-1.757-0.49-2.738c0-0.993,0.163-1.899,0.49-2.719
		c0.326-0.819,0.782-1.518,1.367-2.096c0.585-0.577,1.276-1.023,2.071-1.341c0.795-0.316,1.66-0.475,2.597-0.475h3.272
		c0.974,0,1.864,0.161,2.672,0.483c0.807,0.324,1.5,0.776,2.08,1.361c0.579,0.583,1.028,1.281,1.349,2.095
		c0.32,0.813,0.48,1.71,0.48,2.69c0,0.981-0.163,1.894-0.489,2.738c-0.327,0.845-0.783,1.574-1.368,2.188
		c-0.585,0.614-1.279,1.099-2.08,1.452c-0.801,0.354-1.682,0.531-2.644,0.531H82.757z M86.029,15.433
		c0.616,0,1.183-0.111,1.701-0.336c0.518-0.223,0.964-0.53,1.341-0.922c0.375-0.391,0.668-0.859,0.878-1.405
		c0.208-0.547,0.313-1.137,0.313-1.77s-0.105-1.22-0.313-1.76c-0.21-0.54-0.503-1.003-0.878-1.388
		c-0.376-0.386-0.823-0.687-1.341-0.903c-0.518-0.217-1.085-0.326-1.701-0.326h-3.272c-0.604,0-1.161,0.109-1.672,0.326
		c-0.512,0.217-0.952,0.518-1.322,0.903c-0.37,0.385-0.659,0.844-0.869,1.378C78.684,9.765,78.58,10.354,78.58,11
		c0,0.633,0.104,1.223,0.314,1.77c0.21,0.546,0.499,1.015,0.869,1.405c0.37,0.392,0.81,0.699,1.322,0.922
		c0.512,0.225,1.069,0.336,1.672,0.336H86.029z"/>
	<polygon fill="#FFFFFF" points="94.514,17.798 94.514,4.258 96.862,4.258 96.862,15.433 105.902,15.433 105.902,17.798 	"/>
	<path fill="#FFFFFF" d="M119.6,4.258h2.292v7.562c0,1.043-0.136,1.953-0.406,2.729c-0.271,0.776-0.697,1.419-1.276,1.928
		c-0.579,0.509-1.328,0.888-2.246,1.136c-0.918,0.248-2.031,0.373-3.337,0.373c-1.294,0-2.401-0.125-3.318-0.373
		c-0.918-0.248-1.667-0.627-2.247-1.136c-0.579-0.509-1.005-1.151-1.274-1.928c-0.271-0.775-0.408-1.686-0.408-2.729V4.258h2.422
		v7.562c0,0.684,0.084,1.267,0.249,1.75c0.168,0.485,0.438,0.883,0.814,1.192c0.376,0.311,0.878,0.538,1.507,0.681
		c0.628,0.143,1.404,0.214,2.329,0.214c0.924,0,1.7-0.071,2.329-0.214c0.629-0.143,1.131-0.37,1.507-0.681
		c0.375-0.31,0.647-0.707,0.813-1.192c0.167-0.483,0.249-1.066,0.249-1.75V4.258z"/>
	<polygon fill="#FFFFFF" points="128.326,17.798 128.326,6.622 123.224,6.622 123.224,4.258 135.776,4.258 135.776,6.622 
		130.673,6.622 130.673,17.798 	"/>
	<rect x="137.458" y="4.258" fill="#FFFFFF" width="2.348" height="13.54"/>
	<path fill="#FFFFFF" d="M148.401,17.798c-0.936,0-1.802-0.177-2.597-0.531c-0.795-0.354-1.486-0.838-2.071-1.452
		c-0.585-0.614-1.042-1.344-1.368-2.188c-0.328-0.845-0.491-1.757-0.491-2.738c0-0.993,0.163-1.899,0.491-2.719
		c0.326-0.819,0.782-1.518,1.368-2.096c0.585-0.577,1.275-1.023,2.071-1.341c0.795-0.316,1.661-0.475,2.597-0.475h3.273
		c0.973,0,1.863,0.161,2.671,0.483c0.807,0.324,1.5,0.776,2.08,1.361c0.578,0.583,1.029,1.281,1.349,2.095
		c0.32,0.813,0.481,1.71,0.481,2.69c0,0.981-0.164,1.894-0.489,2.738c-0.327,0.845-0.783,1.574-1.369,2.188
		c-0.585,0.614-1.279,1.099-2.079,1.452c-0.802,0.354-1.683,0.531-2.644,0.531H148.401z M151.674,15.433
		c0.616,0,1.183-0.111,1.7-0.336c0.518-0.223,0.964-0.53,1.34-0.922c0.376-0.391,0.669-0.859,0.879-1.405
		c0.209-0.547,0.314-1.137,0.314-1.77s-0.105-1.22-0.314-1.76c-0.21-0.54-0.503-1.003-0.879-1.388
		c-0.375-0.386-0.822-0.687-1.34-0.903s-1.084-0.326-1.7-0.326h-3.273c-0.603,0-1.162,0.109-1.673,0.326
		c-0.511,0.217-0.952,0.518-1.322,0.903c-0.369,0.385-0.658,0.844-0.869,1.378c-0.209,0.534-0.314,1.124-0.314,1.77
		c0,0.633,0.105,1.223,0.314,1.77c0.21,0.546,0.5,1.015,0.869,1.405c0.37,0.392,0.811,0.699,1.322,0.922
		c0.511,0.225,1.07,0.336,1.673,0.336H151.674z"/>
	<path fill="#FFFFFF" d="M162.34,7.89v9.908h-2.237V5.506c0-0.435,0.108-0.779,0.323-1.033c0.216-0.255,0.509-0.383,0.879-0.383
		c0.172,0,0.338,0.038,0.499,0.112c0.161,0.074,0.327,0.198,0.499,0.372l9.484,9.48V4.146h2.237V16.55
		c0,0.447-0.108,0.795-0.323,1.043c-0.216,0.248-0.497,0.373-0.841,0.373c-0.382,0-0.74-0.168-1.073-0.503L162.34,7.89z"/>
	<polygon fill="#ED6522" points="48.427,6.623 58.097,6.623 58.097,4.258 46.099,4.258 46.099,6.623 	"/>
	<polygon fill="#FFFFFF" points="50.147,11.913 57.598,11.913 58.115,11.913 58.115,9.919 57.598,9.919 50.147,9.919 48.427,9.919 
		48.427,9.925 46.099,9.925 46.099,11.913 46.099,17.798 58.115,17.798 58.115,15.433 48.427,15.433 48.427,11.913 	"/>
	<g>
		<defs>
			<rect id="SVGID_29_" x="3.903" y="2.871" width="35.796" height="35.257"/>
		</defs>
		<clipPath id="SVGID_2_">
			<use xlink:href="#SVGID_29_"  overflow="visible"/>
		</clipPath>
		<path clip-path="url(#SVGID_2_)" fill-rule="evenodd" clip-rule="evenodd" fill="#FFFFFF" d="M37.504,4.137l0.117,21.71
			c-0.006,3.486-3.387,5.704-5.777,7.152c-1.279,0.774-8.019,3.857-10.292,3.732c-2.335-0.13-8.603-3.34-10.124-4.187
			c-2.575-1.432-5.583-3.453-5.562-6.93l0.03-21.388L37.504,4.137z M39.528,2.871L3.944,2.876c0.122,7.808-0.138,15.643,0,23.441
			c0.108,6.144,15.225,11.709,17.586,11.809c2.499,0.106,17.636-4.918,17.997-11.576C39.946,18.845,39.459,10.646,39.528,2.871"/>
	</g>
	<path fill-rule="evenodd" clip-rule="evenodd" fill="#FFFFFF" d="M36.208,5.16L7.774,5.169c0,0.011,0,0.026,0,0.04H7.466
		L7.463,20.594L24.031,8.368l1.623,2.199L7.484,23.974l-0.021-0.027v1.43c-0.006,0.949,0.053,1.563,0.257,2.087L23.839,15.57
		l1.624,2.198L9.455,29.578c0.673,0.607,1.541,1.238,2.533,1.857l12.035-8.88l1.622,2.199l-11.037,8.144
		c2.378,1.199,5.027,2.221,7.292,2.736l0-0.078c2.393-0.561,5.2-1.671,7.656-2.954l1.718-0.963c1.296-0.778,2.412-1.583,3.197-2.343
		c1.462-1.414,1.753-1.895,1.741-3.97L36.208,5.16z"/>
</g>
</svg>
